<svg class="logo" viewBox="0 0 900 998" xmlns="http://www.w3.org/2000/svg">
    <title>Skoryk Competition Logo</title>
    <path fill="#e6322f" d="M876.37 0h2.3c6.12-.07 12.71 1.73 16.62 6.76 5.49 7.08 5.1 16.88 2.91 25.13-4.48 14.81-12.9 28.02-21.84 40.5-23.96 32.55-52.45 61.51-82.54 88.38-17.66 15.84-36.29 30.56-55.02 45.09-.86 6.39-2.72 12.59-3.49 18.99-1.76 14.03-4.64 27.89-5.86 41.99-1.88 11.44-3.34 22.95-4.43 34.5-1.96 11.81-3.04 23.73-4.46 35.6-2.04 11.31-3.09 22.75-4.76 34.11-2.33 10.81-2.84 21.92-5.36 32.69-1.55 8.23-2.24 16.61-4.35 24.74-4.3 23.59-9.55 47.04-16.62 69.97-12.41 39.35-34.56 74.89-59.83 107.23-47.32 59.6-104.15 112.35-170.03 150.85-46.21 27-96.66 46.85-149.03 57.9-9.37 2.58-19.1 3.35-28.56 5.54-12.28 1.73-24.62 3.09-36.95 4.52-21.72 1.4-43.7 1.43-65.2-2.38-10.62-1.2-20.91-4.19-31.19-6.95-7.6 18.5-12.78 38-15.78 57.76-.65 8.13-1.68 16.31-1.02 24.49 1.33 24.77 9.99 49.05 24.4 69.23 5.32 7.63 11.5 14.61 18.07 21.19 2.92 2.98 3.52 9.64-1.85 10.17h-2.77c-9.6-2.44-15.46-11.28-20.85-18.91-15.77-24.53-28.18-52.55-28.56-82.15-1.23-5.62.5-11.23.24-16.89.73-8.39 1.38-16.86 3.64-25.01 3.12-15.13 8.11-29.79 13.9-44.1-13.72-5.29-27.04-11.68-39.52-19.49-28.88-17.83-52.77-43.6-68.31-73.78-11.42-21.84-18.96-45.6-23.25-69.83-2.53-10.8-3.11-21.92-4.33-32.91-1.81-16.99-1.68-34.13.1-51.12 3.65-48.86 19.17-96.19 40.81-139.93 29.62-59.74 71.62-112.76 119.89-158.51 26.99-25.73 56.26-49.18 87.88-69 43.69-27.4 92.5-47.43 143.72-54.72 8.45-1.83 17.1-1.81 25.66-2.69 23.41-1.05 47.33 1.92 68.94 11.32 17.03 7.3 32.42 18.48 44.55 32.5 17.97 20.64 27.53 47.33 31.11 74.16 1.21 14.65 2.84 29.4 1.53 44.1-.46 10.89-1.19 21.79-2.81 32.57 42.72-35.6 85.74-70.85 129.91-104.64 3.19-4.73 3.81-10.71 6.16-15.87 19.78-54.77 47.88-106.84 85.07-151.8 14.19-17.08 29.81-33.28 48.31-45.74C846.28 7.14 860.87.55 876.37 0m-42.93 27.42c-14.46 11.94-26.33 26.64-37.13 41.88-25.85 36.86-44.39 78.82-54.53 122.65 9.98-7.34 19.5-15.3 29.05-23.2 31.25-26.22 61-54.45 86.88-86.06 10.57-13.26 21-26.96 27.78-42.6 3.42-7.12 5.22-15.38 3.45-23.2-1.56-5.97-8.21-9.05-13.99-8.66-15.51 1.63-29.69 9.31-41.51 19.19M272.06 204.06c-55.77 38.97-100.47 91.65-138.28 147.73-38.04 56.92-68.24 120-81.59 187.42-2.14 7.85-2.54 16.02-4.02 23.99-1.63 8.47-2 17.11-2.81 25.69-.56 15.72-1.22 31.48-.16 47.21 0 15.77 2.7 31.34 5.41 46.83 3.72 16.22 8.55 32.32 16.21 47.16 15.29 31.71 42.83 56.93 75.23 70.44 24.28-51.39 56.6-98.54 91.15-143.51-11.76-8.07-22.4-18.04-30.06-30.14-5.43-8.26-9.1-17.57-11.6-27.1-3.54-18-3.8-37.45 3.77-54.49 5.6-12.74 14.36-24.25 25.71-32.39 8.31-5.55 17.82-9.68 27.86-10.52 11.3-1.81 24.77-1.18 33.19 7.63 6.24 6.38 7.71 15.49 8.75 23.97.7 19.02-13.25 36.9-31.19 42.43-6.51 2.71-13.7 1.98-20.57 1.88-6.4-.97-12.49-5.17-14.99-11.27-3.23-6.05-3.07-13.17-2.39-19.8 1.32-6.06 5.07-11.71 4.06-18.17-.61-2.75-4.35-2.39-6.33-1.46-4.44 2.32-7.52 6.58-9.74 10.96-6.91 12.72-9.92 27.18-10.83 41.52.98 9.98 2.19 20.22 6.62 29.34 7.02 16.07 19.88 29.07 34.4 38.59 40.75-53.38 87.38-101.94 135.65-148.5 56.26-53.94 115.2-105.04 175.41-154.52 1.54-1.52 1.49-3.89 1.99-5.86 2.28-11.25 2.49-22.76 4.1-34.1.97-13.3 1.19-26.71 0-40.01-1.58-8.97-1.71-18.25-4.75-26.9-4.99-20.31-15.37-39.39-30.21-54.19-17.94-18.17-41.94-29.95-67.13-33.75-5.63-.8-11.32-.98-16.97-1.51-8.39-1.17-16.77.75-25.17.92-50.72 5.11-99.11 25.41-140.72 54.48m377.58 71.64c-29.64 24.23-58.98 48.83-88.17 73.6-4.94 24.73-11.49 49.16-20.32 72.79-20.3 55.58-51.8 106.82-90.72 151.32-24.97 28.58-53.37 54.84-86.79 73.24-18.29 9.88-38.03 17.47-58.69 20.4-12.52 2.51-25.53 2.3-38.06-.1-8.47-1.19-16.76-3.21-24.9-5.81-34.61 44.79-65.38 92.76-89.39 144.06 15.37 5.03 31.34 8.25 47.44 9.81 24.85 1.5 50 1.15 74.5-3.64 9.08-.88 17.8-3.63 26.73-5.31 33.79-8.48 66.33-21.78 96.51-39.2 64.07-37.18 118.19-90.43 159.15-151.95 18.08-26.86 33.51-55.4 47.4-84.62 7.12-14.89 13.6-30.09 19.55-45.49 14.19-38.49 23.55-78.5 34.18-118.05 1.63-8.74 4.65-17.13 6.26-25.88 2.61-8.23 3.87-16.8 6.43-25.04 1.99-9.66 4.74-19.14 6.75-28.81 2.56-7.85 3.96-16.03 6.71-23.83 1.41-6.74 4.19-13.09 5.75-19.79-13.77 10.33-26.89 21.53-40.32 32.3M487.07 412.09c-56.23 49.62-111.4 100.52-163.46 154.54-26.39 27.75-52.27 56.08-75.59 86.49 5.3 1.83 10.69 3.44 16.11 4.92 22.35 4.37 45.72 1.68 67.04-5.99 14.87-5.01 28.84-12.38 42.04-20.81 30.16-19.78 55.72-45.77 78.39-73.64 34.3-42.13 61.25-90.14 79.78-141.16 6.43-18.67 12.82-37.48 16.63-56.9-20.5 17.3-40.8 34.83-60.94 52.55z"/>
</svg>
